<?xml version="1.0" standalone="no"?><!DOCTYPE svg PUBLIC "-//W3C//DTD SVG 1.1//EN" "http://www.w3.org/Graphics/SVG/1.1/DTD/svg11.dtd"><svg t="1556296789026" class="icon" style="" viewBox="0 0 1117 1024" version="1.1" xmlns="http://www.w3.org/2000/svg" p-id="9182" xmlns:xlink="http://www.w3.org/1999/xlink" width="218.1640625" height="200"><defs><style type="text/css"></style></defs><path d="M930.909091 265.309091a112.64 112.64 0 0 0-111.709091 113.570909v265.309091H297.890909V378.88A112.64 112.64 0 0 0 186.181818 265.309091a109.847273 109.847273 0 0 0-37.236363 0V113.570909A112.64 112.64 0 0 1 260.654545 0h595.781819a112.64 112.64 0 0 1 111.709091 113.570909v151.738182a105.192727 105.192727 0 0 0-37.236364 0z m-819.2 682.356364A155.461818 155.461818 0 0 1 0 837.818182V417.047273a75.403636 75.403636 0 0 1 74.472727-75.403637h74.472728a75.403636 75.403636 0 0 1 74.472727 75.403637v303.476363h670.254545V417.047273a75.403636 75.403636 0 0 1 74.472728-75.403637h74.472727a75.403636 75.403636 0 0 1 74.472727 75.403637V837.818182a154.530909 154.530909 0 0 1-111.709091 113.570909z" fill="#2c2c2c" p-id="9183"></path></svg>